# xmcd CD database file
#
# Track frame offsets:
#	150
#	16389
#	38633
#	55332
#	75845
#	101890
#	126400
#	156093
#	184000
#
# Disc length: 2835 seconds
#
# Revision: 0
# Processed by: cddbd v1.5.1PL2 Copyright (c) Steve Scherf et al.
# Submitted via: CDex 1.51
#
DISCID=6a0b1109
DTITLE=Lennie Tristano - LENNIE TRISTANO
DYEAR=1955
DGENRE=Jazz
TTITLE0=Line Up
TTITLE1=Requiem
TTITLE2=Turkish Mambo
TTITLE3=East Thirty-Second
TTITLE4=These Foolish Things
TTITLE5=You Go To My Head
TTITLE6=If I Had You
TTITLE7=Ghost Of A Chance
TTITLE8=All The Things You Are
EXTD=YEAR: 1955
EXTT0=
EXTT1=
EXTT2=
EXTT3=
EXTT4=
EXTT5=
EXTT6=
EXTT7=
EXTT8=
PLAYORDER=
